<?xml version="1.0" encoding="utf-8"?>
<!-- Generator: Adobe Illustrator 26.1.0, SVG Export Plug-In . SVG Version: 6.00 Build 0)  -->
<svg version="1.1" xmlns="http://www.w3.org/2000/svg" xmlns:xlink="http://www.w3.org/1999/xlink" x="0px" y="0px"
	 viewBox="0 0 841.89 595.28" style="enable-background:new 0 0 841.89 595.28;" xml:space="preserve">
<style type="text/css">
	.st0{fill:#CD3B32;}
	.st1{fill:#295E7E;}
	.st2{fill:none;}
	.st3{fill:#D9271C;}
	.st4{fill:#CD3A38;}
	.st5{fill-rule:evenodd;clip-rule:evenodd;fill:#295E7E;}
</style>
<g id="Layer_2">
</g>
<g id="Layer_3">
	<g>
		<path class="st0" d="M187.82,231.92v17.28c8.18-0.28,16.36-0.56,24.54-0.84c0.28,22.84,0.56,47.68,0.84,70.52h16.2
			c0.32-22.72,0.64-47.44,0.96-70.16c3.92-0.12,7.84-0.24,11.76-0.36c1.65-2.66,4.15-6.08,7.8-9.48c3.53-3.29,7.01-5.51,9.72-6.96
			C235.7,231.92,211.76,231.92,187.82,231.92z"/>
		<path class="st1" d="M308.32,258.92c-1.12-1.41-9.5-11.59-23.4-11.7c-11.34-0.09-21.95,6.56-27.36,17.1
			c-0.83,2.46-3.41,11.14,0.54,20.7c5.73,13.87,20.17,17.32,21.6,17.64c2.57,0.42,9.95,1.29,17.82-2.7
			c6.25-3.17,9.69-7.81,11.16-10.08c3.6,3.72,7.2,7.44,10.8,11.16c-11.01,14.22-28.98,21.04-46.08,17.46
			c-9.06-1.89-17.13-6.55-23.38-13.06c-13.61-14.17-16.2-35.96-6.28-52.92c2.23-3.81,5.2-7.61,9.14-11.06
			c11.89-10.38,25.47-11.23,29.52-11.33c5.31,0.23,16.12,1.48,26.64,8.81c4.69,3.27,8.08,6.89,10.44,9.9L308.32,258.92z"/>
		<path class="st1" d="M292.3,252.8c1.75,0.62,3.89,1.57,6.12,3.06c3.88,2.59,6.33,5.64,7.74,7.74v21.24
			c-0.73,1.72-2.55,5.34-6.48,8.28c-3.17,2.37-6.32,3.25-8.1,3.6c-1.98-4.06-5.58-12.83-4.86-24.3
			C287.29,263.43,290.27,256.61,292.3,252.8z"/>
		<path class="st3" d="M387.73,262.52h-12.45v30.6h10.17c4.74,0,9.36-1.93,12.44-5.53c0.21-0.25,0.42-0.5,0.62-0.77
			c2.77-3.63,3.41-7.34,3.6-9c0.07-1.31,0.11-5.27-2.52-9.18c-0.17-0.25-0.34-0.49-0.52-0.72
			C396.39,264.43,392.13,262.52,387.73,262.52z"/>
		<path class="st1" d="M311.2,315.08c3.36,1.64,16.41,7.5,32.58,3.24c14.86-3.92,23.08-13.93,25.48-17.1
			c-3.87-3.54-7.75-7.08-11.62-10.62c-1.74,2.24-6.12,7.25-13.68,10.08c-8.37,3.13-15.65,1.74-18.36,1.08
			c-1.75,2.37-4.1,5.15-7.2,7.92C315.85,311.96,313.38,313.73,311.2,315.08z"/>
		<g>
			<path class="st4" d="M452.67,240.8v6.6h-7.71v23.39h-6.85V247.4h-7.71v-6.6H452.67z"/>
			<path class="st4" d="M462.96,264.19h11.99v6.6H456.1V240.8h18.63v6.6h-11.78v4.97h10.71v6.51h-10.71V264.19z"/>
			<path class="st4" d="M493.33,271.39c-4.48,0-8.2-1.49-11.16-4.48c-2.96-2.98-4.43-6.69-4.43-11.12c0-4.43,1.48-8.13,4.43-11.12
				c2.96-2.98,6.67-4.48,11.16-4.48c2.68,0,5.17,0.62,7.45,1.86c2.28,1.24,4.08,2.93,5.4,5.08l-5.91,3.43
				c-0.66-1.17-1.6-2.08-2.83-2.72c-1.23-0.64-2.6-0.96-4.11-0.96c-2.66,0-4.78,0.81-6.36,2.44s-2.38,3.78-2.38,6.47
				c0,2.69,0.79,4.84,2.38,6.47s3.71,2.44,6.36,2.44c1.51,0,2.89-0.33,4.13-0.99c1.24-0.66,2.18-1.56,2.81-2.7l5.91,3.43
				c-1.29,2.14-3.07,3.83-5.35,5.08C498.54,270.77,496.04,271.39,493.33,271.39z"/>
			<path class="st4" d="M526.1,240.8h6.85v29.99h-6.85v-11.91h-9.42v11.91h-6.85V240.8h6.85v11.48h9.42V240.8z"/>
			<path class="st4" d="M555.22,240.8h6.85v29.99h-5.14l-11.57-16.28v16.28h-6.85V240.8h5.14l11.57,16.28V240.8z"/>
			<path class="st4" d="M567.65,240.8h6.85v29.99h-6.85V240.8z"/>
			<path class="st4" d="M594.38,271.39c-4.48,0-8.2-1.49-11.16-4.48c-2.96-2.98-4.43-6.69-4.43-11.12c0-4.43,1.48-8.13,4.43-11.12
				c2.96-2.98,6.67-4.48,11.16-4.48c2.68,0,5.17,0.62,7.45,1.86c2.28,1.24,4.08,2.93,5.4,5.08l-5.91,3.43
				c-0.66-1.17-1.6-2.08-2.83-2.72c-1.23-0.64-2.6-0.96-4.11-0.96c-2.66,0-4.78,0.81-6.36,2.44s-2.38,3.78-2.38,6.47
				c0,2.69,0.79,4.84,2.38,6.47s3.71,2.44,6.36,2.44c1.51,0,2.89-0.33,4.13-0.99c1.24-0.66,2.18-1.56,2.81-2.7l5.91,3.43
				c-1.29,2.14-3.07,3.83-5.35,5.08C599.59,270.77,597.09,271.39,594.38,271.39z"/>
			<path class="st4" d="M630.41,270.79l-1.61-4.71h-11.54l-1.5,4.71h-7.5l10.2-29.99h8.74l10.22,29.99H630.41z M619.35,259.65h7.27
				l-3.75-11.01L619.35,259.65z"/>
			<path class="st4" d="M647.28,264.19h10.71v6.6h-17.56V240.8h6.85V264.19z"/>
			<path class="st4" d="M446.85,315.47c-4.48,0-8.2-1.49-11.16-4.48c-2.96-2.98-4.43-6.69-4.43-11.12c0-4.43,1.48-8.13,4.43-11.11
				s6.67-4.48,11.16-4.48c2.68,0,5.17,0.62,7.45,1.86c2.28,1.24,4.08,2.93,5.4,5.08l-5.91,3.43c-0.66-1.17-1.6-2.08-2.83-2.72
				c-1.23-0.64-2.6-0.96-4.11-0.96c-2.66,0-4.78,0.81-6.36,2.44s-2.38,3.78-2.38,6.47c0,2.69,0.79,4.84,2.38,6.47
				s3.71,2.44,6.36,2.44c1.51,0,2.89-0.33,4.13-0.99c1.24-0.66,2.18-1.56,2.81-2.7l5.91,3.43c-1.29,2.14-3.07,3.83-5.35,5.08
				C452.06,314.85,449.56,315.47,446.85,315.47z"/>
			<path class="st4" d="M470.19,308.27h11.99v6.6h-18.85v-29.98h18.63v6.6h-11.78v4.97h10.71v6.51h-10.71V308.27z"/>
			<path class="st4" d="M503.18,284.89h6.85v29.98h-5.14l-11.57-16.28v16.28h-6.85v-29.98h5.14l11.57,16.28V284.89z"/>
			<path class="st4" d="M535.73,284.89v6.6h-7.71v23.39h-6.85v-23.39h-7.71v-6.6H535.73z"/>
			<path class="st4" d="M546.01,308.27h11.99v6.6h-18.85v-29.98h18.63v6.6h-11.78v4.97h10.71v6.51h-10.71V308.27z"/>
			<path class="st4" d="M578.05,314.87l-5.66-9.85h-3.25v9.85h-6.85v-29.98h11.99c2.86,0,5.28,1,7.28,3c2,2,3,4.43,3,7.28
				c0,1.83-0.51,3.52-1.52,5.08c-1.01,1.56-2.35,2.76-4,3.62l6.38,11.01H578.05z M569.14,291.31v7.71h5.14
				c0.94,0,1.75-0.37,2.42-1.11s1.01-1.66,1.01-2.74c0-1.08-0.34-2-1.01-2.74c-0.67-0.74-1.48-1.11-2.42-1.11H569.14z"/>
		</g>
		<g>
			<path class="st1" d="M205.91,344.08h-7.41v5.42h7.1v2.1h-7.1v7.1h-2.22v-16.72h9.63V344.08z"/>
			<path class="st1" d="M229.94,356.48c-1.68,1.69-3.73,2.53-6.15,2.53s-4.47-0.84-6.14-2.53s-2.51-3.74-2.51-6.14
				c0-2.42,0.84-4.47,2.51-6.15c1.67-1.68,3.72-2.52,6.14-2.52s4.47,0.84,6.15,2.52c1.68,1.68,2.52,3.73,2.52,6.15
				C232.46,352.75,231.62,354.8,229.94,356.48z M219.18,354.97c1.23,1.25,2.77,1.88,4.6,1.88s3.36-0.62,4.6-1.88
				c1.23-1.25,1.85-2.79,1.85-4.62c0-1.85-0.62-3.4-1.85-4.65c-1.23-1.25-2.77-1.88-4.6-1.88s-3.36,0.62-4.6,1.88
				c-1.23,1.25-1.85,2.8-1.85,4.65C217.33,352.18,217.95,353.72,219.18,354.97z"/>
			<path class="st1" d="M252.45,358.71l-3.75-6.4h-3.95v6.4h-2.22v-16.72h6.69c1.43,0,2.66,0.51,3.68,1.52
				c1.02,1.01,1.53,2.23,1.53,3.67c0,1.08-0.32,2.07-0.97,2.96s-1.48,1.52-2.5,1.89l3.94,6.69H252.45z M244.76,344.06v6.24h4.47
				c0.83,0,1.53-0.31,2.11-0.92c0.58-0.61,0.87-1.35,0.87-2.21s-0.29-1.59-0.87-2.2c-0.58-0.6-1.29-0.91-2.11-0.91H244.76z"/>
			<path class="st1" d="M285.54,359.02c-2.53,0-4.62-0.84-6.27-2.51c-1.65-1.67-2.47-3.73-2.47-6.16s0.82-4.49,2.47-6.16
				c1.65-1.67,3.74-2.51,6.27-2.51c1.53,0,2.93,0.37,4.22,1.1c1.28,0.73,2.28,1.72,3,2.96l-1.94,1.12
				c-0.48-0.92-1.19-1.66-2.14-2.21c-0.95-0.55-2-0.82-3.14-0.82c-1.93,0-3.5,0.62-4.72,1.86c-1.22,1.24-1.83,2.8-1.83,4.66
				c0,1.85,0.61,3.39,1.83,4.63c1.22,1.24,2.79,1.86,4.72,1.86c1.15,0,2.19-0.28,3.14-0.82c0.95-0.55,1.66-1.28,2.14-2.19l1.94,1.1
				c-0.7,1.24-1.7,2.23-2.99,2.97C288.48,358.65,287.07,359.02,285.54,359.02z"/>
			<path class="st1" d="M313.49,358.71l-1.36-3.75h-7.52l-1.37,3.75h-2.37l6.24-16.72h2.51l6.24,16.72H313.49z M305.36,352.88h6.01
				l-3-8.26L305.36,352.88z"/>
			<path class="st1" d="M335.16,358.71l-3.75-6.4h-3.95v6.4h-2.22v-16.72h6.69c1.43,0,2.66,0.51,3.68,1.52
				c1.02,1.01,1.53,2.23,1.53,3.67c0,1.08-0.32,2.07-0.97,2.96s-1.48,1.52-2.5,1.89l3.94,6.69H335.16z M327.47,344.06v6.24h4.47
				c0.83,0,1.53-0.31,2.11-0.92c0.58-0.61,0.87-1.35,0.87-2.21s-0.29-1.59-0.87-2.2c-0.58-0.6-1.29-0.91-2.11-0.91H327.47z"/>
			<path class="st1" d="M349.47,356.6h7.76v2.1h-9.99v-16.72h9.87v2.1h-7.65v5.14h7.05v2.08h-7.05V356.6z"/>
			<path class="st1" d="M369.54,356.6h7.76v2.1h-9.99v-16.72h9.87v2.1h-7.65v5.14h7.05v2.08h-7.05V356.6z"/>
			<path class="st1" d="M397.3,358.71l-3.75-6.4h-3.95v6.4h-2.22v-16.72h6.69c1.43,0,2.66,0.51,3.68,1.52
				c1.02,1.01,1.53,2.23,1.53,3.67c0,1.08-0.32,2.07-0.97,2.96s-1.48,1.52-2.5,1.89l3.94,6.69H397.3z M389.61,344.06v6.24h4.47
				c0.83,0,1.53-0.31,2.11-0.92c0.58-0.61,0.87-1.35,0.87-2.21s-0.29-1.59-0.87-2.2c-0.58-0.6-1.29-0.91-2.11-0.91H389.61z"/>
			<path class="st1" d="M429.05,341.98c2.28,0,4.17,0.81,5.67,2.43c1.5,1.62,2.26,3.59,2.26,5.94c0,2.34-0.75,4.32-2.26,5.94
				c-1.51,1.62-3.4,2.42-5.67,2.42h-6.52v-16.72H429.05z M429.05,356.6c1.7,0,3.1-0.6,4.18-1.79c1.08-1.19,1.62-2.68,1.62-4.47
				c0-1.78-0.54-3.27-1.62-4.47c-1.08-1.19-2.48-1.79-4.18-1.79h-4.3v12.52H429.05z"/>
			<path class="st1" d="M449.31,356.6h7.76v2.1h-9.99v-16.72h9.87v2.1h-7.64v5.14h7.05v2.08h-7.05V356.6z"/>
			<path class="st1" d="M471.53,358.71l-5.97-16.72h2.39l4.85,13.94l4.82-13.94h2.41l-6,16.72H471.53z"/>
			<path class="st1" d="M491.62,356.6h7.76v2.1h-9.99v-16.72h9.87v2.1h-7.64v5.14h7.05v2.08h-7.05V356.6z"/>
			<path class="st1" d="M511.69,356.6h7.21v2.1h-9.44v-16.72h2.22V356.6z"/>
			<path class="st1" d="M541.3,356.48c-1.68,1.69-3.73,2.53-6.15,2.53c-2.42,0-4.47-0.84-6.14-2.53c-1.67-1.69-2.51-3.74-2.51-6.14
				c0-2.42,0.84-4.47,2.51-6.15c1.67-1.68,3.72-2.52,6.14-2.52c2.42,0,4.47,0.84,6.15,2.52c1.68,1.68,2.52,3.73,2.52,6.15
				C543.82,352.75,542.98,354.8,541.3,356.48z M530.55,354.97c1.23,1.25,2.77,1.88,4.6,1.88c1.83,0,3.36-0.62,4.6-1.88
				c1.23-1.25,1.85-2.79,1.85-4.62c0-1.85-0.62-3.4-1.85-4.65c-1.23-1.25-2.77-1.88-4.6-1.88c-1.83,0-3.37,0.62-4.6,1.88
				c-1.23,1.25-1.85,2.8-1.85,4.65C528.7,352.18,529.31,353.72,530.55,354.97z"/>
			<path class="st1" d="M559.97,341.98c1.54,0,2.83,0.51,3.86,1.54s1.54,2.31,1.54,3.83c0,1.51-0.51,2.79-1.54,3.82
				s-2.31,1.55-3.86,1.55h-3.85v5.97h-2.22v-16.72H559.97z M559.97,350.66c0.92,0,1.69-0.31,2.29-0.94
				c0.61-0.63,0.91-1.41,0.91-2.35c0-0.96-0.3-1.74-0.91-2.37s-1.37-0.93-2.29-0.93h-3.85v6.59H559.97z"/>
			<path class="st1" d="M591.05,341.98v16.72h-2.2v-13.07l-5.47,9.1l-0.27-0.01l-5.49-9.1v13.08h-2.22v-16.72h2.51l5.35,8.88
				l5.31-8.88H591.05z"/>
			<path class="st1" d="M604.26,356.6h7.76v2.1h-9.99v-16.72h9.87v2.1h-7.64v5.14h7.05v2.08h-7.05V356.6z"/>
			<path class="st1" d="M632.5,341.98h2.22v16.72h-1.79l-8.6-12.49v12.49h-2.22v-16.72h1.72l8.67,12.56V341.98z"/>
			<path class="st1" d="M656.41,341.98v2.1h-4.95v14.62h-2.2v-14.62h-4.92v-2.1H656.41z"/>
		</g>
		<g>
			<g>
				<path class="st5" d="M186.97,335.78h471.11v2.38H186.97V335.78z"/>
				<path class="st5" d="M186.97,362.95h471.11v2.38H186.97V362.95z"/>
			</g>
		</g>
		<path class="st1" d="M426.58,277.82c-0.58,19.17-14.11,35.79-32.75,40.66c-2.54,0.67-5.16,0.96-7.79,0.96h-27.68
			c3.26-2.15,7.52-5.5,11.52-10.48c2.59-3.22,4.44-6.34,5.76-9c1.19,0.31,13.09,3.15,22.86-5.04c8.32-6.97,8.93-16.79,9-18.43
			c-0.05-1.61-0.49-11.56-8.82-18.65c-9.89-8.41-22.14-5.33-23.22-5.04l-0.18,6.66l-19.26,0.18c-1.27-1.97-5.48-7.94-13.68-10.98
			c-8.27-3.06-15.4-1.21-17.64-0.54c-1.83-2.78-4.29-5.98-7.56-9.18c-1.79-1.75-3.56-3.24-5.22-4.5c4.47-1.77,13.45-4.62,24.84-3.42
			c4.32,0.46,8.15,1.42,11.41,2.54h9.11v-0.02h28.7c2.61,0,5.23,0.28,7.76,0.94C413.35,239.59,427.19,257.68,426.58,277.82z"/>
	</g>
</g>
</svg>
